<?xml version="1.0" encoding="utf-8"?>
<!-- Generator: Adobe Illustrator 27.5.0, SVG Export Plug-In . SVG Version: 6.00 Build 0)  -->
<svg version="1.1" id="Layer_1" xmlns="http://www.w3.org/2000/svg" xmlns:xlink="http://www.w3.org/1999/xlink" x="0px" y="0px"
	 viewBox="0 0 2823 2000" style="enable-background:new 0 0 2823 2000;" xml:space="preserve">
<g>
	<g>
		<g>
			<rect x="0" style="fill:#FFFFFF;" width="464" height="250"/>
		</g>
	</g>
	<g>
		<path style="fill:#9BC1F9;" d="M1161.715,1157.76l-0.002-2.951c7.615-0.006,15.295-0.359,22.825-1.053l0.271,2.94
			C1177.189,1157.396,1169.42,1157.756,1161.715,1157.76z M1138.621,1156.723c-7.661-0.695-15.368-1.756-22.904-3.151l0.538-2.903
			c7.447,1.379,15.062,2.427,22.633,3.114L1138.621,1156.723z M1207.708,1153.518l-0.54-2.902
			c7.462-1.391,14.946-3.147,22.242-5.223l0.808,2.84C1222.834,1150.332,1215.261,1152.111,1207.708,1153.518z M1093.203,1148.313
			c-7.386-2.092-14.765-4.558-21.931-7.329l1.064-2.753c7.082,2.738,14.373,5.175,21.67,7.241L1093.203,1148.313z
			 M1252.139,1140.879l-1.068-2.752c7.072-2.746,14.101-5.857,20.89-9.247l1.318,2.641
			C1266.409,1134.952,1259.296,1138.1,1252.139,1140.879z M1050.113,1131.646c-6.873-3.422-13.67-7.209-20.203-11.256l1.554-2.51
			c6.457,4,13.174,7.741,19.965,11.123L1050.113,1131.646z M1293.464,1120.244l-1.557-2.509c6.44-3.998,12.778-8.351,18.836-12.935
			l1.781,2.354C1306.395,1111.793,1299.982,1116.197,1293.464,1120.244z M1010.832,1107.32c-6.127-4.626-12.114-9.595-17.795-14.769
			l1.987-2.183c5.615,5.113,11.532,10.023,17.586,14.596L1010.832,1107.32z M1330.304,1092.368l-1.99-2.181
			c5.607-5.117,11.042-10.555,16.155-16.164l2.182,1.989C1341.477,1081.688,1335.977,1087.191,1330.304,1092.368z M976.672,1076.215
			c-5.183-5.673-10.161-11.65-14.797-17.769l2.353-1.783c4.581,6.047,9.502,11.955,14.623,17.561L976.672,1076.215z
			 M1361.429,1058.227l-2.354-1.781c4.58-6.057,8.929-12.398,12.928-18.846l2.509,1.557
			C1370.464,1045.681,1366.063,1052.096,1361.429,1058.227z M948.774,1039.393c-4.057-6.527-7.855-13.316-11.288-20.18l2.64-1.32
			c3.393,6.783,7.146,13.492,11.154,19.94L948.774,1039.393z M1385.778,1018.959l-2.643-1.316c3.389-6.797,6.498-13.83,9.238-20.904
			l2.753,1.067C1392.354,1004.965,1389.208,1012.082,1385.778,1018.959z M928.117,998.077c-2.784-7.16-5.263-14.534-7.368-21.917
			l2.839-0.809c2.08,7.295,4.53,14.582,7.281,21.657L928.117,998.077z M1402.469,975.879l-2.84-0.806
			c2.07-7.294,3.823-14.779,5.209-22.245l2.902,0.539C1406.338,960.923,1404.564,968.497,1402.469,975.879z M915.451,953.654
			c-1.408-7.536-2.482-15.24-3.191-22.898l2.94-0.272c0.701,7.568,1.761,15.181,3.153,22.628L915.451,953.654z M1410.905,930.466
			l-2.94-0.269c0.689-7.534,1.039-15.213,1.039-22.824l-0.001-0.574l2.952-0.005l0.001,0.577
			C1411.956,915.073,1411.603,922.843,1410.905,930.466z M914.134,907.661h-2.952v-0.288c0-7.601,0.345-15.273,1.025-22.804
			l2.94,0.265c-0.672,7.444-1.013,15.027-1.013,22.539V907.661z M1407.913,883.976c-0.709-7.566-1.779-15.177-3.18-22.623
			l2.901-0.545c1.417,7.535,2.5,15.237,3.218,22.893L1407.913,883.976z M918.249,862.199l-2.903-0.536
			c1.394-7.557,3.159-15.133,5.246-22.518l2.841,0.803C921.37,847.246,919.625,854.732,918.249,862.199z M1399.472,839.12
			c-2.089-7.296-4.547-14.579-7.306-21.649l2.75-1.073c2.792,7.154,5.279,14.525,7.394,21.909L1399.472,839.12z M930.661,818.274
			l-2.754-1.063c2.767-7.164,5.904-14.285,9.325-21.165l2.644,1.315C936.495,804.159,933.395,811.196,930.661,818.274z
			 M1382.883,796.598c-3.401-6.779-7.161-13.484-11.177-19.928l2.505-1.562c4.064,6.52,7.87,13.305,11.311,20.166L1382.883,796.598z
			 M950.986,777.39l-2.51-1.553c4.038-6.528,8.432-12.949,13.06-19.085l2.357,1.777C959.319,764.592,954.977,770.938,950.986,777.39
			z M1358.737,757.856c-4.589-6.043-9.516-11.945-14.644-17.544l2.177-1.993c5.188,5.665,10.174,11.638,14.817,17.752
			L1358.737,757.856z M978.477,740.934l-2.184-1.986c5.169-5.683,10.663-11.192,16.328-16.374l1.993,2.178
			C989.015,729.873,983.585,735.317,978.477,740.934z M1327.903,724.184c-5.62-5.106-11.542-10.01-17.604-14.575l1.776-2.358
			c6.133,4.62,12.126,9.582,17.813,14.748L1327.903,724.184z M1012.166,710.118l-1.784-2.352
			c6.121-4.643,12.529-9.055,19.045-13.112l1.56,2.506C1024.548,701.17,1018.215,705.529,1012.166,710.118z M1291.431,696.714
			c-6.461-3.992-13.183-7.726-19.977-11.1l1.313-2.644c6.876,3.414,13.677,7.192,20.216,11.232L1291.431,696.714z M1050.922,685.995
			l-1.322-2.639c6.869-3.44,13.978-6.596,21.129-9.382l1.072,2.751C1064.734,679.477,1057.71,682.596,1050.922,685.995z
			 M1250.535,676.414c-7.083-2.73-14.376-5.158-21.678-7.217l0.801-2.841c7.39,2.083,14.771,4.541,21.939,7.304L1250.535,676.414z
			 M1093.454,669.432l-0.811-2.838c7.381-2.109,14.953-3.896,22.502-5.312l0.544,2.902
			C1108.229,665.582,1100.748,667.348,1093.454,669.432z M1206.602,664.026c-7.45-1.37-15.066-2.409-22.637-3.088l0.264-2.94
			c7.661,0.687,15.368,1.739,22.907,3.125L1206.602,664.026z M1138.315,661.016l-0.273-2.939c7.622-0.711,15.392-1.078,23.092-1.091
			l0.005,2.952C1153.528,659.952,1145.849,660.315,1138.315,661.016z"/>
	</g>
	<g>
		<path style="fill:#9BC1F9;" d="M1825.659,915.744l-0.003-2.952c7.616-0.005,15.296-0.359,22.826-1.052l0.271,2.939
			C1841.134,915.381,1833.363,915.739,1825.659,915.744z M1802.565,914.707c-7.661-0.696-15.368-1.756-22.903-3.151l0.537-2.903
			c7.447,1.379,15.062,2.427,22.634,3.114L1802.565,914.707z M1871.652,911.501l-0.541-2.902c7.463-1.39,14.946-3.147,22.242-5.223
			l0.808,2.839C1886.777,908.316,1879.205,910.095,1871.652,911.501z M1757.146,906.296c-7.386-2.091-14.764-4.557-21.93-7.329
			l1.064-2.753c7.082,2.739,14.372,5.175,21.67,7.242L1757.146,906.296z M1916.083,898.862l-1.068-2.752
			c7.072-2.746,14.102-5.856,20.89-9.247l1.319,2.641C1930.354,892.936,1923.24,896.084,1916.083,898.862z M1714.057,889.63
			c-6.872-3.422-13.67-7.208-20.203-11.255l1.555-2.51c6.456,4,13.174,7.742,19.965,11.123L1714.057,889.63z M1957.408,878.228
			l-1.557-2.508c6.44-3.998,12.777-8.351,18.836-12.935l1.782,2.354C1970.339,869.777,1963.926,874.181,1957.408,878.228z
			 M1674.776,865.304c-6.127-4.626-12.114-9.595-17.796-14.768l1.988-2.183c5.615,5.113,11.531,10.024,17.586,14.596
			L1674.776,865.304z M1994.248,850.352l-1.99-2.181c5.607-5.116,11.043-10.555,16.155-16.164l2.182,1.989
			C2005.421,839.671,1999.921,845.174,1994.248,850.352z M1640.616,834.198c-5.183-5.672-10.161-11.65-14.798-17.77l2.354-1.783
			c4.582,6.047,9.502,11.956,14.623,17.562L1640.616,834.198z M1612.718,797.376c-4.057-6.526-7.855-13.315-11.287-20.18l2.64-1.32
			c3.393,6.783,7.146,13.492,11.154,19.941L1612.718,797.376z M2049.723,776.943l-2.643-1.317c3.389-6.796,6.497-13.83,9.238-20.903
			l2.752,1.067C2056.297,762.948,2053.152,770.065,2049.723,776.943z M1592.061,756.061c-2.783-7.16-5.262-14.534-7.367-21.917
			l2.839-0.81c2.081,7.296,4.529,14.583,7.28,21.658L1592.061,756.061z M2066.412,733.863l-2.839-0.806
			c2.07-7.294,3.822-14.779,5.209-22.245l2.902,0.539C2070.282,718.907,2068.508,726.481,2066.412,733.863z M1579.395,711.638
			c-1.407-7.536-2.481-15.24-3.19-22.898l2.939-0.272c0.7,7.568,1.762,15.181,3.153,22.627L1579.395,711.638z M2074.85,688.45
			l-2.939-0.269c0.688-7.534,1.038-15.213,1.038-22.824l-0.001-0.574l2.952-0.005l0.001,0.577
			C2075.9,673.057,2075.547,680.827,2074.85,688.45z M1578.078,665.645h-2.952v-0.288c0-7.601,0.345-15.273,1.024-22.804l2.94,0.265
			c-0.672,7.444-1.013,15.027-1.013,22.539V665.645z M2071.856,641.961c-0.71-7.566-1.779-15.178-3.18-22.624l2.901-0.545
			c1.417,7.535,2.5,15.237,3.218,22.893L2071.856,641.961z M1582.192,620.183l-2.903-0.535c1.395-7.557,3.159-15.133,5.246-22.519
			l2.841,0.804C1585.314,605.229,1583.57,612.716,1582.192,620.183z M2063.416,597.104c-2.09-7.295-4.548-14.579-7.307-21.648
			l2.751-1.073c2.792,7.155,5.278,14.526,7.394,21.909L2063.416,597.104z M1594.605,576.258l-2.754-1.063
			c2.766-7.164,5.903-14.285,9.324-21.166l2.644,1.315C1600.438,562.143,1597.339,569.18,1594.605,576.258z M1614.93,535.374
			l-2.51-1.553c4.037-6.528,8.432-12.949,13.059-19.085l2.357,1.777C1623.263,522.576,1618.92,528.922,1614.93,535.374z
			 M2022.682,515.84c-4.589-6.043-9.516-11.945-14.645-17.544l2.178-1.994c5.188,5.666,10.174,11.639,14.817,17.753L2022.682,515.84
			z M1642.421,498.918l-2.184-1.986c5.169-5.683,10.663-11.192,16.328-16.375l1.993,2.178
			C1652.959,487.857,1647.529,493.301,1642.421,498.918z M1991.847,482.168c-5.62-5.105-11.543-10.01-17.603-14.575l1.776-2.358
			c6.133,4.619,12.125,9.581,17.813,14.747L1991.847,482.168z M1676.109,468.102l-1.783-2.352
			c6.121-4.643,12.529-9.055,19.045-13.112l1.561,2.506C1688.492,459.153,1682.159,463.513,1676.109,468.102z M1955.375,454.698
			c-6.461-3.992-13.183-7.727-19.977-11.1l1.313-2.644c6.875,3.414,13.677,7.192,20.216,11.232L1955.375,454.698z M1714.866,443.979
			l-1.322-2.639c6.87-3.44,13.979-6.596,21.13-9.382l1.071,2.751C1728.679,437.461,1721.654,440.58,1714.866,443.979z
			 M1914.479,434.397c-7.083-2.73-14.376-5.158-21.678-7.217l0.801-2.841c7.39,2.084,14.771,4.541,21.938,7.303L1914.479,434.397z
			 M1757.398,427.416l-0.812-2.838c7.382-2.109,14.952-3.896,22.503-5.312l0.544,2.902
			C1772.173,423.566,1764.691,425.332,1757.398,427.416z M1870.546,422.01c-7.45-1.37-15.066-2.409-22.637-3.087l0.264-2.941
			c7.66,0.688,15.367,1.739,22.907,3.125L1870.546,422.01z M1802.26,419l-0.273-2.938c7.622-0.711,15.391-1.078,23.092-1.092
			l0.006,2.952C1817.473,417.936,1809.793,418.298,1802.26,419z"/>
	</g>
	<g>
		<path style="fill:#9BC1F9;" d="M532.136,1600.997l-0.004-4.999c12.896-0.008,25.899-0.607,38.649-1.781l0.459,4.977
			C558.338,1600.382,545.182,1600.988,532.136,1600.997z M493.032,1599.24c-12.974-1.178-26.022-2.974-38.782-5.336l0.91-4.916
			c12.609,2.334,25.503,4.109,38.325,5.274L493.032,1599.24z M610.015,1593.813l-0.916-4.913
			c12.637-2.354,25.308-5.329,37.661-8.845l1.368,4.809C635.627,1588.42,622.804,1591.432,610.015,1593.813z M416.126,1584.999
			c-12.506-3.542-25-7.717-37.135-12.41l1.803-4.662c11.991,4.638,24.336,8.764,36.694,12.263L416.126,1584.999z M685.248,1572.412
			l-1.809-4.66c11.976-4.649,23.877-9.916,35.372-15.657l2.233,4.472C709.412,1562.377,697.368,1567.707,685.248,1572.412z
			 M343.163,1556.779c-11.637-5.795-23.147-12.207-34.21-19.059l2.632-4.249c10.933,6.771,22.307,13.108,33.806,18.834
			L343.163,1556.779z M755.224,1537.471l-2.636-4.246c10.905-6.77,21.636-14.141,31.895-21.902l3.017,3.985
			C777.119,1523.163,766.26,1530.619,755.224,1537.471z M276.65,1515.588c-10.375-7.832-20.512-16.246-30.132-25.006l3.366-3.695
			c9.507,8.656,19.526,16.973,29.778,24.713L276.65,1515.588z M817.603,1490.27l-3.369-3.693
			c9.494-8.663,18.698-17.872,27.355-27.368l3.694,3.367C836.522,1472.186,827.209,1481.503,817.603,1490.27z M218.807,1462.918
			c-8.776-9.604-17.206-19.729-25.056-30.089l3.985-3.019c7.758,10.238,16.089,20.244,24.762,29.735L218.807,1462.918z
			 M870.306,1432.459l-3.987-3.015c7.754-10.257,15.119-20.993,21.89-31.911l4.248,2.635
			C885.606,1411.215,878.153,1422.079,870.306,1432.459z M171.568,1400.566c-6.87-11.049-13.3-22.545-19.112-34.168l4.47-2.236
			c5.744,11.486,12.099,22.846,18.887,33.766L171.568,1400.566z M911.536,1365.97l-4.474-2.232
			c5.739-11.508,11.001-23.417,15.643-35.395l4.661,1.807C922.67,1342.271,917.343,1354.322,911.536,1365.97z M136.59,1330.61
			c-4.713-12.124-8.911-24.61-12.475-37.112l4.807-1.371c3.522,12.354,7.669,24.691,12.328,36.672L136.59,1330.61z
			 M939.798,1293.022l-4.808-1.364c3.505-12.352,6.473-25.025,8.821-37.668l4.915,0.914
			C946.35,1267.697,943.346,1280.522,939.798,1293.022z M115.143,1255.391c-2.385-12.761-4.203-25.806-5.403-38.774l4.978-0.461
			c1.186,12.815,2.982,25.705,5.339,38.314L115.143,1255.391z M954.084,1216.125l-4.978-0.455
			c1.167-12.758,1.758-25.76,1.758-38.646l-0.002-0.973l4.999-0.01l0.002,0.976C955.863,1190.062,955.265,1203.217,954.084,1216.125
			z M112.914,1177.51h-4.999v-0.486c0-12.87,0.583-25.861,1.735-38.614l4.978,0.449c-1.137,12.604-1.714,25.444-1.714,38.165
			V1177.51z M949.016,1137.406c-1.202-12.811-3.013-25.7-5.384-38.309l4.912-0.924c2.399,12.76,4.233,25.801,5.449,38.766
			L949.016,1137.406z M119.88,1100.531l-4.916-0.907c2.36-12.796,5.349-25.624,8.883-38.13l4.811,1.36
			C125.165,1075.211,122.212,1087.887,119.88,1100.531z M934.723,1061.451c-3.538-12.352-7.7-24.685-12.37-36.656l4.657-1.817
			c4.726,12.114,8.939,24.597,12.519,37.098L934.723,1061.451z M140.898,1026.154l-4.663-1.801
			c4.684-12.131,9.996-24.188,15.789-35.838l4.477,2.226C150.776,1002.254,145.527,1014.168,140.898,1026.154z M906.635,989.45
			c-5.759-11.479-12.126-22.833-18.927-33.743l4.242-2.645c6.882,11.041,13.325,22.53,19.152,34.147L906.635,989.45z
			 M175.313,956.925l-4.251-2.63c6.837-11.054,14.277-21.927,22.114-32.316l3.991,3.009
			C189.423,935.256,182.071,946.002,175.313,956.925z M865.749,923.849c-7.77-10.231-16.113-20.226-24.796-29.707l3.687-3.375
			c8.785,9.593,17.227,19.707,25.09,30.06L865.749,923.849z M221.864,895.195l-3.698-3.364c8.752-9.623,18.054-18.95,27.648-27.726
			l3.374,3.688C239.706,876.467,230.514,885.686,221.864,895.195z M813.538,866.834c-9.517-8.646-19.545-16.95-29.807-24.68
			l3.007-3.993c10.385,7.822,20.532,16.224,30.161,24.972L813.538,866.834z M278.908,843.016l-3.02-3.982
			c10.364-7.862,21.215-15.333,32.248-22.202l2.642,4.244C299.874,827.864,289.151,835.246,278.908,843.016z M751.781,820.32
			c-10.941-6.76-22.323-13.083-33.827-18.794l2.222-4.477c11.643,5.779,23.159,12.179,34.232,19.019L751.781,820.32z
			 M344.533,802.169l-2.238-4.469c11.631-5.825,23.669-11.169,35.777-15.886l1.815,4.658
			C367.921,791.132,356.027,796.414,344.533,802.169z M682.532,785.945c-11.993-4.623-24.343-8.734-36.708-12.221l1.356-4.81
			c12.513,3.527,25.012,7.688,37.148,12.367L682.532,785.945z M416.551,774.123l-1.373-4.806
			c12.499-3.571,25.318-6.598,38.103-8.994l0.921,4.913C441.569,767.604,428.901,770.595,416.551,774.123z M608.141,764.969
			c-12.615-2.319-25.511-4.078-38.331-5.228l0.447-4.979c12.971,1.164,26.022,2.944,38.788,5.292L608.141,764.969z M492.514,759.874
			l-0.464-4.977c12.907-1.203,26.062-1.824,39.102-1.848l0.009,4.999C518.273,758.07,505.27,758.685,492.514,759.874z"/>
	</g>
	<g>
		<path style="fill:#9BC1F9;" d="M1994.078,1819.224l-0.004-4.996c12.889-0.009,25.885-0.606,38.629-1.78l0.458,4.975
			C2020.267,1818.609,2007.117,1819.215,1994.078,1819.224z M1954.996,1817.469c-12.967-1.178-26.008-2.973-38.761-5.334
			l0.909-4.913c12.603,2.333,25.49,4.107,38.305,5.271L1954.996,1817.469z M2071.915,1812.043l-0.915-4.91
			c12.63-2.354,25.294-5.326,37.641-8.84l1.367,4.807C2097.513,1806.653,2084.696,1809.664,2071.915,1812.043z M1878.133,1803.234
			c-12.5-3.539-24.986-7.712-37.115-12.403l1.803-4.659c11.984,4.635,24.322,8.759,36.674,12.256L1878.133,1803.234z
			 M2147.106,1790.654l-1.808-4.656c11.97-4.647,23.863-9.912,35.354-15.649l2.231,4.47
			C2171.257,1780.625,2159.22,1785.953,2147.106,1790.654z M1805.209,1775.029c-11.631-5.791-23.135-12.199-34.192-19.048
			l2.631-4.247c10.927,6.769,22.294,13.102,33.788,18.824L1805.209,1775.029z M2217.044,1755.733l-2.635-4.244
			c10.899-6.766,21.625-14.132,31.878-21.891l3.015,3.984C2238.927,1741.433,2228.074,1748.885,2217.044,1755.733z
			 M1738.732,1733.862c-10.369-7.829-20.5-16.237-30.115-24.993l3.363-3.693c9.502,8.652,19.516,16.963,29.763,24.701
			L1738.732,1733.862z M2279.389,1708.559l-3.368-3.691c9.489-8.658,18.688-17.862,27.341-27.354l3.692,3.365
			C2298.298,1690.483,2288.99,1699.795,2279.389,1708.559z M1680.922,1681.221c-8.771-9.6-17.196-19.717-25.042-30.072l3.983-3.018
			c7.754,10.234,16.08,20.232,24.748,29.719L1680.922,1681.221z M2332.063,1650.778l-3.984-3.013
			c7.75-10.252,15.111-20.983,21.878-31.895l4.246,2.634C2347.355,1629.547,2339.906,1640.404,2332.063,1650.778z
			 M1633.709,1618.904c-6.866-11.045-13.293-22.534-19.103-34.15l4.468-2.234c5.741,11.478,12.093,22.832,18.877,33.746
			L1633.709,1618.904z M2373.271,1584.326l-4.472-2.23c5.736-11.502,10.996-23.404,15.635-35.375l4.658,1.805
			C2384.398,1560.641,2379.074,1572.686,2373.271,1584.326z M1598.75,1548.985c-4.711-12.117-8.906-24.597-12.469-37.092l4.805-1.37
			c3.521,12.347,7.666,24.678,12.321,36.652L1598.75,1548.985z M2401.517,1511.418l-4.806-1.363
			c3.504-12.345,6.469-25.011,8.816-37.646l4.912,0.912C2408.064,1486.108,2405.063,1498.926,2401.517,1511.418z M1577.314,1473.807
			c-2.383-12.754-4.2-25.791-5.399-38.751l4.974-0.462c1.186,12.809,2.981,25.693,5.337,38.295L1577.314,1473.807z
			 M1575.086,1395.97h-4.995v-0.487c0-12.862,0.583-25.847,1.733-38.592l4.976,0.449c-1.137,12.596-1.714,25.43-1.714,38.143
			V1395.97z M2410.729,1355.887c-1.2-12.804-3.011-25.686-5.382-38.287l4.91-0.923c2.398,12.752,4.231,25.787,5.446,38.743
			L2410.729,1355.887z M1582.049,1319.033l-4.913-0.906c2.358-12.789,5.346-25.611,8.878-38.109l4.808,1.359
			C1587.331,1293.727,1584.379,1306.395,1582.049,1319.033z M2396.444,1279.975c-3.536-12.346-7.695-24.673-12.363-36.637
			l4.654-1.816c4.724,12.108,8.934,24.583,12.513,37.078L2396.444,1279.975z M1603.056,1244.696l-4.66-1.799
			c4.681-12.124,9.99-24.175,15.78-35.819l4.474,2.225C1612.928,1220.809,1607.682,1232.717,1603.056,1244.696z M2368.371,1208.012
			c-5.755-11.473-12.119-22.819-18.916-33.724l4.24-2.643c6.878,11.035,13.318,22.517,19.142,34.129L2368.371,1208.012z
			 M1637.452,1175.506l-4.249-2.629c6.834-11.047,14.27-21.914,22.102-32.299l3.988,3.008
			C1651.554,1153.849,1644.205,1164.588,1637.452,1175.506z M2327.508,1142.447c-7.766-10.225-16.104-20.215-24.782-29.69
			l3.686-3.374c8.78,9.588,17.217,19.697,25.075,30.043L2327.508,1142.447z M1683.977,1113.81l-3.695-3.362
			c8.747-9.617,18.044-18.939,27.633-27.71l3.372,3.687C1701.81,1095.092,1692.622,1104.305,1683.977,1113.81z M1740.99,1061.658
			l-3.02-3.979c10.358-7.858,21.203-15.323,32.231-22.19l2.641,4.242C1761.943,1046.516,1751.227,1053.894,1740.99,1061.658z
			 M2213.604,1038.976c-10.936-6.757-22.311-13.075-33.809-18.784l2.222-4.475c11.636,5.775,23.146,12.172,34.212,19.008
			L2213.604,1038.976z M1806.578,1020.834l-2.236-4.467c11.625-5.821,23.656-11.163,35.758-15.877l1.813,4.656
			C1829.954,1009.803,1818.066,1015.082,1806.578,1020.834z M2144.392,1004.619c-11.986-4.62-24.33-8.729-36.688-12.213l1.356-4.808
			c12.506,3.525,24.998,7.684,37.128,12.36L2144.392,1004.619z M1878.557,992.804l-1.371-4.803
			c12.491-3.57,25.304-6.594,38.081-8.99l0.921,4.911C1903.562,986.289,1890.9,989.278,1878.557,992.804z M2070.042,983.655
			c-12.608-2.318-25.497-4.076-38.31-5.225l0.446-4.977c12.965,1.163,26.008,2.942,38.767,5.289L2070.042,983.655z
			 M1954.479,978.562l-0.464-4.974c12.899-1.203,26.048-1.823,39.081-1.847l0.009,4.996
			C1980.224,976.76,1967.228,977.374,1954.479,978.562z"/>
	</g>
	<g>
		<path style="fill:#9BC1F9;" d="M1041.732,1028.77l-0.003-3.959c10.213-0.006,20.513-0.48,30.612-1.41l0.363,3.941
			C1062.485,1028.283,1052.065,1028.764,1041.732,1028.77z M1010.76,1027.379c-10.275-0.933-20.61-2.355-30.716-4.227l0.721-3.894
			c9.987,1.85,20.199,3.255,30.355,4.177L1010.76,1027.379z M1103.415,1023.08l-0.725-3.892c10.008-1.864,20.044-4.222,29.829-7.005
			l1.084,3.809C1123.7,1018.809,1113.543,1021.194,1103.415,1023.08z M949.849,1016.1c-9.905-2.805-19.801-6.111-29.412-9.829
			l1.428-3.692c9.497,3.673,19.275,6.941,29.063,9.712L949.849,1016.1z M1163.002,1006.13l-1.433-3.69
			c9.485-3.683,18.911-7.854,28.016-12.401l1.769,3.542C1182.14,998.182,1172.601,1002.404,1163.002,1006.13z M892.059,993.748
			c-9.217-4.589-18.333-9.668-27.095-15.095l2.085-3.366c8.659,5.364,17.667,10.382,26.775,14.917L892.059,993.748z
			 M1218.425,978.456l-2.088-3.363c8.637-5.362,17.137-11.199,25.262-17.348l2.389,3.157
			C1235.766,967.124,1227.166,973.029,1218.425,978.456z M839.379,961.124c-8.217-6.204-16.247-12.867-23.866-19.806l2.666-2.927
			c7.53,6.857,15.465,13.444,23.586,19.575L839.379,961.124z M1267.831,941.071l-2.669-2.925
			c7.52-6.862,14.809-14.155,21.667-21.677l2.926,2.667C1282.816,926.748,1275.44,934.128,1267.831,941.071z M793.566,919.407
			c-6.951-7.607-13.628-15.625-19.845-23.831l3.156-2.392c6.145,8.11,12.743,16.034,19.612,23.552L793.566,919.407z
			 M1309.574,895.283l-3.158-2.388c6.142-8.124,11.975-16.628,17.337-25.274l3.365,2.086
			C1321.692,878.457,1315.789,887.062,1309.574,895.283z M756.151,870.023c-5.441-8.752-10.535-17.857-15.138-27.063l3.541-1.771
			c4.55,9.097,9.583,18.095,14.959,26.743L756.151,870.023z M1342.229,842.621l-3.543-1.767c4.545-9.115,8.714-18.547,12.39-28.034
			l3.691,1.431C1351.047,823.852,1346.829,833.396,1342.229,842.621z M728.447,814.615c-3.733-9.603-7.058-19.493-9.881-29.394
			l3.808-1.085c2.789,9.784,6.074,19.557,9.764,29.045L728.447,814.615z M1364.613,784.845l-3.808-1.081
			c2.776-9.783,5.126-19.82,6.986-29.834l3.892,0.723C1369.803,764.787,1367.423,774.944,1364.613,784.845z M711.461,755.039
			c-1.889-10.106-3.329-20.438-4.28-30.709l3.942-0.365c0.94,10.15,2.363,20.359,4.229,30.346L711.461,755.039z M1375.928,723.94
			l-3.943-0.36c0.924-10.104,1.393-20.403,1.393-30.61l-0.001-0.77l3.959-0.007l0.001,0.773
			C1377.337,703.296,1376.863,713.716,1375.928,723.94z M709.695,693.356h-3.96v-0.386c0-10.193,0.462-20.483,1.374-30.583
			l3.943,0.355c-0.901,9.983-1.357,20.153-1.357,30.228V693.356z M1371.914,661.591c-0.951-10.147-2.386-20.355-4.264-30.341
			l3.89-0.732c1.901,10.105,3.354,20.435,4.316,30.703L1371.914,661.591z M715.212,632.385l-3.894-0.718
			c1.87-10.135,4.237-20.295,7.035-30.2l3.81,1.077C719.398,612.331,717.059,622.371,715.212,632.385z M1360.594,601.434
			c-2.802-9.785-6.099-19.553-9.798-29.034l3.688-1.439c3.744,9.595,7.08,19.481,9.916,29.383L1360.594,601.434z M731.859,573.477
			l-3.693-1.426c3.71-9.608,7.917-19.158,12.505-28.385l3.545,1.763C739.683,554.546,735.525,563.983,731.859,573.477z
			 M1338.347,544.405c-4.56-9.092-9.603-18.084-14.99-26.726l3.36-2.095c5.451,8.745,10.555,17.845,15.169,27.046L1338.347,544.405z
			 M759.117,518.645l-3.367-2.083c5.416-8.755,11.308-17.367,17.515-25.596l3.161,2.383
			C770.293,501.483,764.469,509.993,759.117,518.645z M1305.964,492.448c-6.154-8.103-12.762-16.02-19.639-23.529l2.92-2.673
			c6.958,7.598,13.644,15.608,19.872,23.809L1305.964,492.448z M795.986,469.753l-2.929-2.664c6.933-7.622,14.3-15.01,21.898-21.96
			l2.672,2.921C810.118,454.919,802.838,462.221,795.986,469.753z M1264.611,447.29c-7.538-6.848-15.48-13.425-23.608-19.547
			l2.381-3.163c8.225,6.195,16.263,12.85,23.889,19.779L1264.611,447.29z M841.167,428.425l-2.392-3.154
			c8.208-6.228,16.803-12.144,25.542-17.585l2.093,3.361C857.773,416.425,849.28,422.272,841.167,428.425z M1215.698,410.449
			c-8.666-5.354-17.68-10.362-26.792-14.886l1.76-3.546c9.222,4.578,18.343,9.646,27.113,15.064L1215.698,410.449z M893.145,396.073
			l-1.773-3.54c9.212-4.613,18.746-8.847,28.337-12.582l1.436,3.689C911.669,387.331,902.248,391.515,893.145,396.073z
			 M1160.851,383.223c-9.499-3.662-19.281-6.918-29.074-9.679l1.074-3.81c9.911,2.794,19.81,6.089,29.423,9.794L1160.851,383.223z
			 M950.185,373.86l-1.087-3.806c9.899-2.829,20.053-5.226,30.179-7.124l0.73,3.892C970,368.697,959.967,371.065,950.185,373.86z
			 M1101.931,366.609c-9.992-1.837-20.206-3.23-30.359-4.141l0.354-3.943c10.274,0.921,20.61,2.332,30.721,4.191L1101.931,366.609z
			 M1010.35,362.573l-0.367-3.941c10.223-0.953,20.642-1.445,30.97-1.463l0.007,3.959
			C1030.752,361.146,1020.453,361.632,1010.35,362.573z"/>
	</g>
	<g>
		<path style="fill:#9BC1F9;" d="M2226.834,478.883c-157.527-3.342-288.404,122.097-291.746,279.624
			c-3.342,157.527,122.097,288.403,279.624,291.745c157.526,3.343,288.403-122.096,291.745-279.623
			C2509.799,613.102,2384.361,482.225,2226.834,478.883z M2225.563,980.025L2225.563,980.025
			c-118.993,2.645-217.602-91.674-220.246-210.667v-0.001c-2.646-118.993,91.673-217.601,210.666-220.247h0.001
			c118.993-2.646,217.601,91.673,220.246,210.667v0C2438.875,878.772,2344.557,977.379,2225.563,980.025z"/>
		<path style="fill:#9BC1F9;" d="M2694.209,690.756c-4.578-8.38-12.49-9.075-33.811-10.745c-26.352-2.063-52.784-3.196-79.078-5.782
			c-4.803-0.472-11.341-4.945-13.288-9.275c-12.559-27.922-23.514-56.57-36.26-84.401c-3.71-8.1-4.253-13.136,1.516-20.233
			c20.314-24.991,39.953-50.532,59.82-75.887c3.221-4.111,6.297-8.336,11.76-15.587c-34.912-32.758-69.435-65.15-104.826-98.356
			c-29.605,25.525-56.895,48.294-83.203,72.146c-9.275,8.41-15.768,10.461-28.194,4.484c-25.395-12.214-52.479-20.881-78.547-31.777
			c-3.996-1.671-8.396-7.122-9.022-11.356c-4.785-32.324-9.634-64.696-12.441-97.228c-1.348-15.612-7.957-20.677-22.333-20.147
			c-5.525,0.203-11.124-1.588-16.689-2.47c-25.008,0.556-50.017,1.111-75.025,1.668c-2.681,0.886-5.302,2.234-8.051,2.587
			c-28.809,3.688-24.191,1.328-26.41,28.374c-2.704,32.954-4.854,65.953-6.927,94.582c-37.725,16.954-72.979,32.799-109.392,49.164
			c-31.096-24.355-63.59-49.807-96.295-75.423c-38.979,29.591-70.234,64.854-98.053,104.466
			c25.166,29.074,49.63,57.481,74.302,85.708c4.429,5.065,6.044,8.735,2.807,16.123c-12.676,28.92-24.629,58.212-35.286,87.927
			c-3.072,8.566-6.916,10.777-14.897,11.72c-32.944,3.889-65.798,8.544-98.728,12.569c-8.182,1-12.354,3.632-13.587,12.886
			c-5.532,41.511-2.114,82.505,4.847,123.465c1.378,8.107,6.267,9.186,13.22,9.609c32.164,1.957,64.282,4.694,96.456,6.428
			c9.271,0.5,13.473,3.071,17.096,12.632c12.516,33.034,26.955,65.338,41.765,100.545c-22.14,28.265-47.261,60.338-72.375,92.399
			c29.978,39.821,64.063,73.091,104.616,100.237c31.592-27.612,62.324-54.475,90.16-78.805c32.483,11.516,62.403,23,92.943,32.494
			c11.54,3.588,16.093,8.646,17.252,20.503c3.087,31.58,7.405,63.044,11.549,94.513c0.82,6.219,0.125,14.393,10.384,14.086
			c41.731-1.246,83.464-2.446,125.195-3.705c8.87-0.268,11.877-5.006,12.364-13.779c1.814-32.647,5.059-65.225,6.32-97.884
			c0.486-12.601,6.494-16.478,16.914-20.661c25.73-10.332,51.391-21.24,75.779-34.338c10.513-5.645,15.848-5.096,24.581,2.148
			c28.062,23.276,57.036,45.449,85.062,67.576c25.716-14.584,83.339-76.242,99.697-106.244
			c-24.501-27.818-48.987-56.206-74.248-83.887c-6.319-6.924-5.896-11.68-2.524-19.913c10.876-26.564,19.875-53.893,30.484-80.575
			c1.784-4.487,7.616-9.709,12.185-10.365c29.026-4.165,58.204-7.315,87.368-10.463c16.304-1.76,22.892-2.41,26.01-8.627
			L2694.209,690.756z M2425.502,978.173c-57.055,54.685-131.992,83.878-211.005,82.202c-79.013-1.676-152.644-34.021-207.329-91.078
			c-54.686-57.056-83.879-131.993-82.203-211.005c1.677-79.013,34.021-152.643,91.078-207.329
			c57.057-54.685,131.993-83.879,211.006-82.203s152.645,34.022,207.329,91.078c54.686,57.056,83.878,131.993,82.202,211.006
			C2514.903,849.857,2482.559,923.488,2425.502,978.173z"/>
	</g>
	<g>
		<path style="fill:#DD513A;" d="M1782.746,266.22l-8.304,53.322l38.614-26.886l117.611-56.779l-90.121,6.206
			c0,0-46.067,10.097-48.598,12.286C1789.419,256.558,1782.746,266.22,1782.746,266.22z"/>
		<polygon style="fill:#F47458;" points="1743.649,233.026 1930.668,235.876 1782.746,266.22 		"/>
		<polygon style="fill:#F47458;" points="1841.642,321.379 1793.535,280.919 1930.668,235.876 		"/>
	</g>
	<g>
		<g>
			<path style="fill:#9BC1F9;" d="M1517.794,452.58c0.661-4.244,1.573-8.525,2.71-12.725c1.047-3.867,2.31-7.757,3.753-11.56
				l4.118,1.563c-1.393,3.669-2.61,7.42-3.619,11.148c-1.095,4.045-1.973,8.167-2.609,12.253c-0.188,1.201-0.355,2.404-0.505,3.609
				l-4.371-0.543C1517.428,455.055,1517.604,453.794,1517.794,452.58z M1537.322,402.593c5.018-7.796,10.96-15.438,17.664-22.713
				l3.239,2.985c-6.532,7.089-12.319,14.529-17.199,22.113L1537.322,402.593z M1677.158,396.956
				c-0.252-0.167-0.502-0.338-0.75-0.512l2.527-3.607c0.217,0.151,0.435,0.301,0.617,0.424c0,0,0.122,0.064,0.44,0.149
				c2.376,0.643,8.682,0.782,12.265-1.246c3.012-1.705,5.469-4.368,7.307-7.917l3.911,2.024c-2.204,4.261-5.333,7.623-9.049,9.726
				c-4.969,2.813-12.602,2.472-15.585,1.665C1678.137,397.471,1677.585,397.239,1677.158,396.956z M1575.957,360.246
				c7.285-5.922,15.151-11.522,23.381-16.646l2.328,3.739c-8.073,5.025-15.788,10.518-22.93,16.324L1575.957,360.246z
				 M1660.347,362.205c0.085-4.225,0.722-8.563,1.894-12.895c0.631-2.329,1.428-4.696,2.367-7.037l4.088,1.642
				c-0.876,2.181-1.618,4.384-2.203,6.547c-1.078,3.984-1.665,7.965-1.742,11.831c-0.055,2.745,0.175,5.519,0.683,8.244l-4.33,0.807
				C1660.54,368.323,1660.286,365.249,1660.347,362.205z M1682.004,340.256l-0.553-0.279l1.963-3.944l0.6,0.303
				c8.985,4.606,16.318,12.084,20.119,20.519l-4.015,1.81C1696.72,351.125,1690.117,344.415,1682.004,340.256z M1626.318,333.032
				c4.922-1.383,13.879-3.72,18.565-3.837c3.64-0.091,6.973-0.054,10.188,0.117l-0.233,4.398c-3.1-0.164-6.319-0.2-9.844-0.112
				c-3.073,0.077-9.446,1.417-17.485,3.675L1626.318,333.032z M1680.216,317.768c6.452-7.222,13.95-13.454,22.284-18.523
				l2.289,3.763c-7.963,4.845-15.125,10.798-21.289,17.695L1680.216,317.768z"/>
		</g>
		<g>
			<path style="fill:#9BC1F9;" d="M1730.303,292.298c4.66-1.17,9.357-1.946,13.963-2.309l-0.347-4.392
				c-4.849,0.382-9.791,1.198-14.688,2.428L1730.303,292.298z"/>
		</g>
	</g>
	<path style="fill:#CAE1F9;" d="M2722.448,1429.135c-11.731-4.18-23.613-7.946-35.254-12.357c-2.126-0.805-4.55-3.644-4.902-5.853
		c-2.276-14.244-3.735-28.621-6.108-42.846c-0.69-4.141-0.318-6.498,3.179-9.016c12.313-8.867,24.388-18.068,36.542-27.155
		c1.971-1.474,3.889-3.017,7.266-5.643c-11.848-19.193-23.564-38.172-35.576-57.628c-16.604,7.967-31.816,14.965-46.716,22.576
		c-5.253,2.684-8.458,2.818-13.374-1.43c-10.048-8.679-21.3-15.952-31.814-24.114c-1.612-1.251-2.942-4.271-2.707-6.274
		c1.801-15.289,3.578-30.609,6.303-45.75c1.308-7.267-1.075-10.383-7.678-11.911c-2.539-0.587-4.865-2.091-7.287-3.177
		c-11.443-2.823-22.885-5.646-34.328-8.471c-1.327,0.074-2.686,0.365-3.979,0.186c-13.556-1.867-11.165-2.372-15.502,9.655
		c-5.284,14.656-10.32,29.399-14.785,42.164c-19.243,3.07-37.227,5.939-55.8,8.903c-11.146-14.902-22.794-30.475-34.517-46.149
		c-21.368,8.663-39.921,20.857-57.446,35.449c7.869,16.319,15.5,32.249,23.249,48.122c1.391,2.848,1.675,4.715-0.707,7.678
		c-9.322,11.594-18.362,23.445-26.865,35.648c-2.45,3.518-4.471,4.051-8.217,3.498c-15.462-2.285-30.977-4.209-46.448-6.43
		c-3.844-0.552-6.065,0.133-7.765,4.189c-7.622,18.199-11.11,37.264-12.984,56.748c-0.37,3.858,1.72,4.949,4.831,5.997
		c14.387,4.847,28.658,10.042,43.078,14.789c4.154,1.368,5.749,3.054,6.221,7.849c1.629,16.563,4.221,33.031,6.626,50.865
		c-13.546,10.132-28.917,21.629-44.283,33.121c8.735,21.799,20.145,41.123,35.249,58.457c17.764-8.672,35.046-17.108,50.699-24.748
		c13.357,9.232,25.552,18.137,38.273,26.211c4.807,3.052,6.256,5.912,5.324,11.447c-2.481,14.743-4.388,29.584-6.374,44.406
		c-0.393,2.929-1.714,6.56,2.989,7.684c19.133,4.567,38.261,9.154,57.396,13.717c4.067,0.969,6.018-0.816,7.318-4.746
		c4.841-14.625,10.324-29.043,14.916-43.74c1.771-5.672,4.98-6.695,10.233-7.316c12.975-1.534,25.986-3.339,38.689-6.295
		c5.476-1.273,7.834-0.367,10.915,4.001c9.899,14.038,20.35,27.687,30.374,41.198c13.489-3.47,47.282-24.424,58.412-36.057
		c-7.721-15.665-15.365-31.588-23.448-47.285c-2.022-3.928-1.245-6.037,1.302-9.367c8.214-10.744,15.668-22.066,23.776-32.896
		c1.363-1.82,4.658-3.479,6.816-3.215c13.714,1.677,27.371,3.834,41.022,5.99c7.632,1.205,10.708,1.72,12.891-0.725l15.031-60.91
		C2735.452,1433.807,2731.939,1432.518,2722.448,1429.135z M2610.683,1437.836c-13.435,54.445-68.462,87.689-122.906,74.254h-0.001
		c-54.443-13.436-87.688-68.463-74.253-122.906l0,0c13.436-54.444,68.463-87.689,122.906-74.254h0.001
		C2590.874,1328.365,2624.118,1383.393,2610.683,1437.836L2610.683,1437.836z"/>
	<g>
		<ellipse style="fill:#ADAEB5;" cx="596.906" cy="1148.623" rx="73.837" ry="45.729"/>
		<path style="fill:#F7CC7F;" d="M596.905,177c-183.853,0-332.898,149.043-332.898,332.898
			c0,100.456,44.498,190.517,114.855,251.555c0.246,0.266,52.004,56.205,60.539,114.789l1.548,35.861
			c0.508,11.757,5.121,22.965,13.037,31.673c0.702,0.772,1.431,1.512,2.174,2.234H737.65c0.744-0.722,1.473-1.462,2.174-2.234
			c7.917-8.708,12.53-19.916,13.037-31.673l1.548-35.861c8.536-58.584,60.294-114.523,60.54-114.789
			c70.356-61.038,114.854-151.099,114.854-251.555C929.805,326.043,780.761,177,596.905,177z"/>
		<path style="fill:#544C60;" d="M676.135,1153.734H517.677c-34.364,0-62.222-27.858-62.222-62.223V946.01h282.902v145.502
			C738.357,1125.876,710.499,1153.734,676.135,1153.734z"/>
		<path style="opacity:0.3;fill:#EAB054;" d="M680.358,764.423c-183.958,0-333.086-149.127-333.086-333.085
			c0-74.689,24.585-143.636,66.101-199.192c-90,59.589-149.367,161.731-149.367,277.753c0,100.456,44.498,190.517,114.855,251.555
			c0.246,0.266,52.004,56.205,60.539,114.789l1.548,35.861c0.508,11.757,5.121,22.965,13.037,31.673
			c0.702,0.772,1.431,1.512,2.174,2.234H737.65c0.744-0.722,1.473-1.462,2.174-2.234c7.917-8.708,12.53-19.916,13.037-31.673
			l1.548-35.861c8.536-58.584,60.294-114.523,60.54-114.789c17.798-15.441,33.935-32.746,48.122-51.601
			C810.609,744.34,747.834,764.423,680.358,764.423z"/>
		<g>
			<polygon style="fill:#FFFFFF;" points="594.563,671.351 528.419,382.839 470.367,550.649 453.341,544.76 531.938,317.565 
				599.428,611.951 668.557,443.202 732.585,551.299 717.084,560.479 671.506,483.529 			"/>
		</g>
		<g>
			<path style="fill:#544C60;" d="M511.191,989.385l-1.588,0.165c-8.358,0.866-15.836-5.208-16.702-13.567l-46.26-446.71
				c-0.866-8.358,5.208-15.836,13.567-16.702l1.588-0.164c8.359-0.865,15.836,5.209,16.702,13.567l46.26,446.71
				C525.624,981.042,519.549,988.52,511.191,989.385z"/>
			<path style="fill:#544C60;" d="M683.593,989.467L683.593,989.467c8.797,0.911,16.667-5.482,17.578-14.279l46.095-445.121
				c0.911-8.797-5.482-16.667-14.279-17.579l0,0c-8.797-0.911-16.667,5.482-17.578,14.278L669.314,971.89
				C668.403,980.687,674.796,988.556,683.593,989.467z"/>
		</g>
		<path style="fill:#ADAEB5;" d="M742.868,977.326H451.122c-4.191,0-7.588-3.397-7.588-7.588v-16.14
			c0-4.191,3.397-7.588,7.588-7.588h291.747c4.19,0,7.588,3.397,7.588,7.588v16.14C750.456,973.929,747.059,977.326,742.868,977.326
			z"/>
		<path style="fill:#ADAEB5;" d="M742.868,1040.11H451.122c-4.191,0-7.588-3.397-7.588-7.588v-16.14
			c0-4.191,3.397-7.588,7.588-7.588h291.747c4.19,0,7.588,3.396,7.588,7.588v16.14
			C750.456,1036.713,747.059,1040.11,742.868,1040.11z"/>
		<path style="fill:#ADAEB5;" d="M742.868,1110.368H451.122c-4.191,0-7.588-3.397-7.588-7.588v-16.14
			c0-4.191,3.397-7.588,7.588-7.588h291.747c4.19,0,7.588,3.396,7.588,7.588v16.14
			C750.456,1106.971,747.059,1110.368,742.868,1110.368z"/>
	</g>
	<path style="fill:#F7CC7F;" d="M1033.294,698.356l11.463-21.044l-10.787-21.401c-1.229-2.438,0.863-5.23,3.54-4.725l23.499,4.431
		l16.962-16.902c1.932-1.925,5.226-0.793,5.575,1.916l3.06,23.783l21.27,10.955c2.423,1.248,2.367,4.74-0.094,5.909l-21.608,10.268
		l-3.816,23.672c-0.435,2.696-3.763,3.722-5.633,1.736l-16.414-17.437l-23.629,3.675
		C1033.99,703.61,1031.988,700.752,1033.294,698.356z"/>
	<path style="fill:#F7CC7F;" d="M110.15,1029.825l11.47-21.056l-10.793-21.413c-1.229-2.439,0.864-5.233,3.542-4.728l23.512,4.434
		l16.971-16.912c1.933-1.926,5.229-0.793,5.578,1.917l3.061,23.795l21.282,10.961c2.424,1.248,2.368,4.742-0.094,5.913
		l-21.62,10.273l-3.818,23.686c-0.435,2.698-3.766,3.725-5.636,1.738l-16.423-17.447l-23.642,3.678
		C110.847,1035.083,108.844,1032.223,110.15,1029.825z"/>
	<path style="fill:#F47458;" d="M1609.079,550.054l-0.117-14.728l-12.163-8.253c-1.386-0.94-1.095-3.065,0.492-3.596l13.93-4.663
		l4.068-14.152c0.463-1.612,2.568-1.992,3.562-0.642l8.727,11.846l14.678-0.493c1.672-0.057,2.682,1.834,1.71,3.199l-8.538,11.983
		l5.005,13.847c0.569,1.577-0.912,3.125-2.507,2.62l-14.002-4.44l-11.586,9.051C1611.017,552.665,1609.092,551.731,1609.079,550.054
		z"/>
	<path style="fill:#F47458;" d="M2312.216,1651.389l9.688-18.188l-9.449-18.269c-1.076-2.08,0.7-4.5,3.006-4.094l20.242,3.566
		l14.449-14.688c1.646-1.672,4.487-0.734,4.809,1.588l2.823,20.393l18.379,9.19c2.093,1.047,2.073,4.046-0.033,5.075l-18.498,9.037
		l-3.09,20.368c-0.352,2.319-3.206,3.234-4.83,1.548l-14.255-14.807l-20.288,3.398
		C2312.857,1655.895,2311.112,1653.46,2312.216,1651.389z"/>
	<path style="fill:#F47458;" d="M2133.149,1838.484H684.364c-48.302,0-87.458-39.156-87.458-87.459V885.378
		c0-48.302,39.157-87.458,87.458-87.458h1448.785c48.302,0,87.458,39.156,87.458,87.458v865.648
		C2220.607,1799.328,2181.451,1838.484,2133.149,1838.484z"/>
	<rect x="636.764" y="856.711" style="fill:#13375B;" width="1543.986" height="887.371"/>
	<rect x="636.764" y="856.711" style="opacity:0.2;fill:#3CB4C5;" width="1543.986" height="94.401"/>
	<path style="fill:#E25A44;" d="M2249.977,1838.484H567.537c-41.71,0-75.521-33.813-75.521-75.521l0,0h1833.482l0,0
		C2325.498,1804.672,2291.686,1838.484,2249.977,1838.484z"/>
	<path style="fill:#EB9288;" d="M2322.35,1783.941c2.035-6.663,3.148-13.695,3.148-20.979l0,0H492.016l0,0
		c0,7.283,1.112,14.316,3.148,20.979H2322.35z"/>
	<rect x="746.486" y="1012.187" style="opacity:0.6;fill:#CAE1F9;" width="12.099" height="684.716"/>
	<rect x="799.158" y="1008.217" style="fill:#466EB6;" width="199.993" height="14.373"/>
	<rect x="799.158" y="1060.463" style="fill:#F47458;" width="199.993" height="14.373"/>
	<rect x="791.825" y="1488.708" style="fill:#466EB6;" width="199.993" height="14.374"/>
	<rect x="791.825" y="1540.953" style="fill:#F47458;" width="199.993" height="14.375"/>
	<rect x="813.878" y="1633.074" style="opacity:0.6;fill:#CAE1F9;" width="177.94" height="14.374"/>
	<rect x="1021.534" y="1060.463" style="opacity:0.6;fill:#CAE1F9;" width="75.698" height="14.373"/>
	<rect x="1021.534" y="1633.074" style="opacity:0.6;fill:#CAE1F9;" width="75.698" height="14.374"/>
	<rect x="1119.556" y="1633.074" style="fill:#466EB6;" width="458.075" height="14.374"/>
	<rect x="1021.534" y="1112.708" style="opacity:0.6;fill:#CAE1F9;" width="156.988" height="14.374"/>
	<rect x="1206.276" y="1112.708" style="fill:#466EB6;" width="443.378" height="14.374"/>
	<rect x="1670.721" y="1112.708" style="fill:#F47458;" width="374.195" height="14.374"/>
	<rect x="1132.718" y="1060.463" style="fill:#F7CC7F;" width="912.198" height="14.373"/>
	<rect x="799.158" y="1112.708" style="fill:#F47458;" width="199.993" height="14.374"/>
	<rect x="799.158" y="1171.135" style="opacity:0.6;fill:#CAE1F9;" width="485.294" height="14.374"/>
	<rect x="799.158" y="1223.381" style="fill:#F47458;" width="675.493" height="14.374"/>
	<rect x="1048.533" y="1275.627" style="opacity:0.6;fill:#CAE1F9;" width="675.494" height="14.373"/>
	<rect x="1048.533" y="1488.708" style="opacity:0.6;fill:#CAE1F9;" width="360.224" height="14.374"/>
	<rect x="1048.533" y="1548.141" style="opacity:0.6;fill:#CAE1F9;" width="607.066" height="14.373"/>
	<rect x="1048.533" y="1327.873" style="fill:#466EB6;" width="293.444" height="14.373"/>
	<rect x="1377.276" y="1327.873" style="opacity:0.6;fill:#CAE1F9;" width="177.802" height="14.373"/>
	<rect x="1048.533" y="1380.118" style="opacity:0.6;fill:#CAE1F9;" width="399.034" height="14.374"/>
	<rect x="1048.533" y="1432.364" style="fill:#F7CC7F;" width="619.303" height="14.374"/>
	<path style="fill:#07345A;" d="M1053.066,491.934l5.892-9.57l-4.731-1.919c-1.036-0.419-1.534-1.6-1.115-2.635l0,0
		c0.42-1.035,1.6-1.534,2.635-1.114l5.457,2.213l5.267-8.595l-5.054-2.049c-1.036-0.42-1.534-1.6-1.115-2.636l0,0
		c0.42-1.035,1.6-1.534,2.635-1.114l5.778,2.344l6.118-9.842c0.52-0.836,1.566-1.177,2.479-0.807l0.882,0.358
		c1.158,0.47,1.618,1.866,0.965,2.932l-5.69,9.287l8.379,3.397l6.117-9.842c0.521-0.836,1.566-1.177,2.479-0.807l0.963,0.391
		c1.158,0.47,1.618,1.866,0.965,2.932l-5.69,9.287l4.731,1.919c1.036,0.419,1.534,1.599,1.114,2.635l0,0
		c-0.419,1.035-1.6,1.534-2.635,1.114l-5.457-2.213l-5.187,8.627l5.054,2.05c1.035,0.42,1.534,1.6,1.114,2.635l0,0
		c-0.42,1.036-1.6,1.535-2.635,1.114l-5.779-2.343l-6.249,10.15c-0.518,0.841-1.567,1.185-2.483,0.814l-1.032-0.418
		c-1.16-0.47-1.619-1.87-0.962-2.936l5.892-9.57l-8.379-3.397l-6.249,10.149c-0.518,0.841-1.568,1.186-2.483,0.814l-1.032-0.418
		C1052.869,494.399,1052.41,492.999,1053.066,491.934z M1074.417,484.267l5.268-8.595l-8.379-3.397l-5.268,8.594L1074.417,484.267z"
		/>
	<path style="fill:#F47458;" d="M2716.966,1045.223l-1.032,0.418c-0.916,0.371-1.966,0.027-2.484-0.815l-6.253-10.154l-8.383,3.399
		l5.896,9.576c0.656,1.066,0.197,2.467-0.963,2.938l-1.033,0.418c-0.916,0.371-1.966,0.027-2.484-0.814l-6.252-10.155l-5.782,2.345
		c-1.035,0.42-2.216-0.079-2.637-1.115l0,0c-0.42-1.035,0.079-2.217,1.115-2.637l5.057-2.051l-5.189-8.631l-5.46,2.214
		c-1.036,0.42-2.217-0.079-2.637-1.114l0,0c-0.42-1.037,0.079-2.217,1.115-2.637l4.734-1.92l-5.693-9.293
		c-0.652-1.066-0.193-2.463,0.965-2.934l0.964-0.391c0.913-0.369,1.96-0.029,2.48,0.809l6.12,9.847l8.384-3.399l-5.692-9.293
		c-0.653-1.065-0.193-2.463,0.965-2.933l0.883-0.358c0.913-0.369,1.96-0.029,2.48,0.808l6.121,9.847l5.781-2.344
		c1.036-0.42,2.217,0.078,2.637,1.115l0,0c0.42,1.035-0.079,2.216-1.115,2.636l-5.057,2.051l5.271,8.599l5.46-2.214
		c1.036-0.42,2.217,0.079,2.637,1.115l0,0c0.42,1.036-0.079,2.216-1.115,2.637l-4.734,1.92l5.896,9.575
		C2718.585,1043.352,2718.126,1044.752,2716.966,1045.223z M2704.95,1031.214l-5.271-8.599l-8.383,3.399l5.271,8.599
		L2704.95,1031.214z"/>
	<path style="fill:#F7CC7F;" d="M1820.679,646.96l-1.032,0.418c-0.914,0.371-1.965,0.027-2.482-0.814l-6.249-10.15l-8.379,3.398
		l5.893,9.57c0.656,1.065,0.197,2.465-0.963,2.935l-1.031,0.419c-0.916,0.372-1.966,0.027-2.483-0.814l-6.249-10.15l-5.778,2.344
		c-1.035,0.42-2.216-0.079-2.636-1.114l0,0c-0.42-1.036,0.079-2.215,1.114-2.635l5.055-2.049l-5.188-8.627l-5.457,2.213
		c-1.035,0.419-2.215-0.079-2.635-1.115l0,0c-0.42-1.036,0.079-2.215,1.114-2.635l4.731-1.919l-5.689-9.286
		c-0.652-1.066-0.193-2.462,0.965-2.932l0.963-0.39c0.912-0.37,1.959-0.029,2.479,0.807l6.117,9.842l8.379-3.398l-5.689-9.287
		c-0.652-1.065-0.193-2.462,0.965-2.932l0.882-0.358c0.913-0.37,1.959-0.029,2.479,0.807l6.118,9.842l5.779-2.343
		c1.035-0.42,2.215,0.079,2.635,1.114l0,0c0.42,1.036-0.079,2.216-1.114,2.635l-5.054,2.049l5.268,8.594l5.456-2.213
		c1.036-0.42,2.216,0.079,2.636,1.115l0,0c0.42,1.036-0.079,2.215-1.115,2.635l-4.731,1.918l5.893,9.57
		C1822.297,645.09,1821.838,646.49,1820.679,646.96z M1808.67,632.959l-5.268-8.594l-8.379,3.398l5.268,8.594L1808.67,632.959z"/>
	<path style="fill:#3C8F7C;" d="M507.73,1313.106c20.615,17.918,7.084,31.196-1.02,26.415c-3.472-2.048-4.5-6.578-1.459-9.474
		c1.392-1.325,4.256-0.219,3.979,1.851c-0.23,1.713,1.676,1.778,2.093-0.069c0.563-2.488-1.62-5.021-3.018-6.841
		c-3.265-4.248-7.44-9.802-13.418-9.588c-8.918,0.318-16.623,10.804-9.291,23.103c10.576,17.739,41.419,11.484,43.125-9.561
		c0.928-11.45-5.727-22.433-15.867-27.608c-1.982-1.012-0.325-3.715,1.558-3.31c14.267,3.072,22.274,19.289,19.962,33.034
		c-2.371,14.099-15.211,23.133-29.056,23.479c-14.518,0.362-28.374-9.751-29.393-24.834
		C474.809,1313.16,493.316,1300.579,507.73,1313.106z"/>
	<path style="fill:#3C8F7C;" d="M1370.057,304.804c20.604,17.908,7.081,31.179-1.02,26.4c-3.47-2.047-4.498-6.574-1.459-9.469
		c1.392-1.325,4.254-0.219,3.977,1.849c-0.229,1.712,1.675,1.778,2.093-0.069c0.562-2.487-1.619-5.019-3.017-6.837
		c-3.263-4.245-7.436-9.796-13.41-9.583c-8.914,0.319-16.614,10.797-9.286,23.089c10.57,17.73,41.395,11.478,43.101-9.555
		c0.928-11.443-5.724-22.42-15.858-27.593c-1.981-1.011-0.325-3.713,1.557-3.309c14.259,3.071,22.262,19.279,19.951,33.016
		c-2.369,14.091-15.203,23.121-29.04,23.466c-14.51,0.363-28.358-9.746-29.376-24.821
		C1337.153,304.857,1355.65,292.282,1370.057,304.804z"/>
	<g>
		<polygon style="fill:#3C8F7C;" points="2666.771,1250.66 2647.521,1247.492 2646.637,1260.451 2640.427,1260.027 
			2641.778,1240.238 2660.913,1243.388 2661.697,1228.125 2679.222,1230.688 2682.184,1215.114 2688.298,1216.277 
			2684.223,1237.709 2667.563,1235.274 		"/>
	</g>
	<g>
		<polygon style="fill:#3C8F7C;" points="342.982,977.197 362.232,974.029 363.116,986.988 369.327,986.564 367.975,966.775 
			348.841,969.925 348.057,954.663 330.532,957.224 327.57,941.651 321.456,942.814 325.531,964.245 342.191,961.81 		"/>
	</g>
	<g>
		<path style="fill:#13375B;" d="M228.85,1843.676L228.85,1843.676c0,3.081,4.19,5.579,9.358,5.579h2332.979
			c5.168,0,9.358-2.498,9.358-5.579l0,0c0-3.082-4.19-5.58-9.358-5.58H238.208C233.039,1838.096,228.85,1840.594,228.85,1843.676z"
			/>
	</g>
	<path style="fill:#FFFFFF;" d="M269.783,1160.883l-10.597,6.701c0,0,2.793,3.887,7.538,1.074
		C272.51,1165.23,269.783,1160.883,269.783,1160.883z"/>
	<g>
		<path style="fill:#F7A491;" d="M1440.185,599.217c-4.528-3.012-35.643,14.358-34.754,19.28
			c0.888,4.923-17.574,55.237-17.574,55.237l-41.518-29.23c0,0-6.925-11.597-8.281-13.368c-2.562-3.345-6.52-6.395-9.593-5.496
			c-3.072,0.898,3.111,4.267,3.562,4.951c1.226,1.862-2.716,2.984-2.716,2.984s-12.13-5.219-12.731-8.915
			c-0.602-3.695-3.729-11.263-6.061-9.393c-1.204,0.965-0.662,6.495-0.009,9.08c-1.025-2.908-2.397-6.171-3.449-6.406
			c-1.923-0.431-2.622,2.03-2.172,3.161c0.451,1.132,4.674,13.491,5.725,14.827c1.027,1.304,21.075,14.511,24.068,17.508
			c0,0,57.243,54.02,61.064,55.211c3.352,1.044,12.892-20.381,22.454-34.914C1427.761,659.201,1454.334,608.63,1440.185,599.217z"/>
		<path style="fill:#DD513A;" d="M1394.949,643.455l38.928,0.236c0,0-1.264-31.773-2.711-46.849
			c-1.755-18.289-5.573-41.698-7.733-40.979c-6.063,2.018-14.083,6.242-18.398,13.547
			C1390.104,594.692,1394.949,643.455,1394.949,643.455z"/>
		<path style="fill:#F47458;" d="M1410.896,595.668c-0.272,5.654-0.544,158.676-0.544,158.676
			c73.445,27.165,109.502-4.414,109.502-4.414s-12.512-106.235-11.15-120.989c0.901-9.762,0.052-73.037-6.332-74.226
			c-8.191-1.524-20.558-3.723-30.62-3.801c-8.59-0.066-41.676,2.592-47.396,5.144
			C1424.356,556.06,1412.041,571.893,1410.896,595.668z"/>
		<path style="fill:#184655;" d="M1443.324,437.65c0,0-26.806-7.294-30.278,15.557c0,0-22.008,2.662-13.281,24.115
			c0,0-19.198,15.757,0.816,40.726c0,0-0.085,27.741,31.159,22.463c0,0,6.714,8.313,20.314,2.967
			c13.6-5.347,16.351-9.868,16.351-9.868s26.62,1.684,29.106-22.56c0,0,16.243-7.96-0.24-27.398c0,0,8.562-31.934-19.755-34.582
			C1477.517,449.068,1467.873,420.555,1443.324,437.65z"/>
		<path style="fill:#F7A491;" d="M1472.049,500.881c-0.725,5.869,1.903,11.023,5.871,11.514c3.967,0.49,7.77-3.87,8.495-9.739
			c0.725-5.869-1.903-11.024-5.87-11.514C1476.578,490.651,1472.774,495.011,1472.049,500.881z"/>
		<path style="fill:#F7A491;" d="M1404.442,502.079c1.024,5.824,5.046,9.984,8.983,9.293c3.937-0.692,6.298-5.975,5.274-11.799
			c-1.024-5.824-5.045-9.985-8.981-9.293C1405.781,490.972,1403.419,496.254,1404.442,502.079z"/>
		<path style="fill:#F7A491;" d="M1438.463,533.636c0.092,0.409-0.021,15.697-0.086,23.782c-0.024,3.016,2.084,5.619,5.035,6.24
			c7.89,1.657,22.984,3.052,30.724-7.945c0.706-1.002,0.921-2.271,0.61-3.457l-8.989-34.406L1438.463,533.636z"/>
		<path style="opacity:0.5;fill:#F47458;" d="M1438.481,542.179c8.428,2.113,17.97,0.048,27.241-8.615
			c1.174-1.096,2.257-2.227,3.256-3.386l-3.222-12.329l-27.294,15.787C1438.508,533.833,1438.504,537.515,1438.481,542.179z"/>
		<path style="fill:#F7A491;" d="M1443.012,456.08c0,0,12.496,0.464,22.009,10.381c9.512,9.917,20.801,42.231-0.687,62.309
			c-21.487,20.078-44.551,1.654-48.864-19.708C1411.157,487.7,1414.494,458.4,1443.012,456.08z"/>
		<path style="fill:#13375B;" d="M1333.025,634.431l-1.618,1.755c-0.833,0.903-2.207,1-3.069,0.217l-34.74-31.53
			c-0.862-0.782-0.887-2.149-0.054-3.052l1.619-1.755c0.832-0.902,2.206-1,3.069-0.217l34.74,31.53
			C1333.833,632.162,1333.857,633.528,1333.025,634.431z"/>
		<path style="fill:#F7A491;" d="M1239.059,918.644c0,0-4.761,9.691-13.641,10.653c-8.88,0.961-30.878-10.722-35.703-10.216
			c-4.826,0.506-6.818,2.948-6.818,2.948l50.088,45.053l13.432-15.198l7.786-12.694L1239.059,918.644z"/>
		<path style="fill:#DD513A;" d="M1220.041,928.874c0,0,7.738,16.977,16.641,19.741c8.904,2.765,9.51,1.761,10.202,4.544
			c0.692,2.783-11.77,17.152-11.77,17.152l-56.419-50.559c-3.737-3.718-3.003-8.356,2.381-7.808
			c3.692,0.377,7.198,1.612,9.354,2.142C1197.058,915.712,1220.041,928.874,1220.041,928.874z"/>
		<path style="fill:#EDAB5C;" d="M1519.854,749.93c-5.065-5.954-98.349-1.585-98.349-1.585s-83.936-4.644-102.68,6.668
			c-5.166,3.118-78.976,153.058-89.311,166.008l23.731,22.854c0,0,61.546-73.451,76.406-91.22
			c10.205-12.203,21.145-29.484,28.932-45.615c31.297,11.464,81.575,22.534,146.085,11.937
			C1533.729,814.203,1524.921,755.885,1519.854,749.93z"/>
		<path style="fill:#F7A491;" d="M1462.533,923.583c0,0-2.581,29.683-7.325,37.903c-4.745,8.22,0.249,22.193,0.499,24.112
			c0.25,1.917,9.988,4.658,25.471,3.013c15.482-1.644,15.232-5.206,13.984-10.959c-1.248-5.754-9.489-13.152-9.988-18.632
			c-0.5-5.48,4.744-25.207,4.744-25.207L1462.533,923.583z"/>
		<path style="fill:#DD513A;" d="M1483.109,990.915c15.942-1.692,13.971-9.499,12.686-15.423c-0.806-3.71-5.379-8.083-8.105-12.22
			c-1.425,1.131-3.742,3.128-10.666,5.167c-7.189,2.116-17.045-2.073-23.325-4.696c-2.238,8.302-2.341,18.889-2.132,20.496
			C1451.824,986.212,1467.166,992.607,1483.109,990.915z"/>
		<path style="fill:#F7CC7F;" d="M1474.309,805.51c-3.217,24.261-19.145,145.033-19.145,145.033l36.958,4.566
			c0,0,45.448-157.637,43.117-181.748c-2.33-24.111-19.343-26.14-19.343-26.14S1482.824,741.29,1474.309,805.51z"/>
		<path style="fill:#FFFFFF;" d="M1428.593,516.978l24.938-3.521c0,0,0.762,9.553-10.159,11.418
			C1430.054,527.148,1428.593,516.978,1428.593,516.978z"/>
		<path style="fill:#184655;" d="M1419.352,464.372c0,0,13.044-3.207,21.384-0.214c8.339,2.994,31.006,30.364,35.924,28.013
			c4.918-2.353,4.277-21.598,1.711-25.019c-2.565-3.421-13.472-14.54-14.541-14.968c-1.069-0.427-12.83-3.207-14.969-3.207
			c-2.138,0-18.39,3.207-18.39,3.207L1419.352,464.372z"/>
		<path style="fill:#F7A491;" d="M1636.423,795.782c-4.504,0.07-16.511-2.496-20.389-2.535c-3.007-0.03-9.44-3.095-12.194-3.03
			c-5.426-11.707-31.664-76.457-39.068-95.046c-9.714-24.392-42.156-108.496-42.156-108.496l-32.315,12.082
			c0,0,27.183,64.967,40.426,97.494c11.383,27.956,56.611,99.854,56.771,100.19c4.545,9.549,17.747,5.654,17.747,5.654
			s21.424-2.262,25.95-2.23C1633.229,799.88,1640.928,795.712,1636.423,795.782z"/>
		<path style="fill:#DD513A;" d="M1545.691,624.332l-40.689,27.694c0,0-11.658-31.173-19.748-50.308
			c-6.956-16.455,10.372-50.139,18.266-47.051C1521.176,561.574,1545.691,624.332,1545.691,624.332z"/>
	</g>
	<g>
		<g>
			<path style="fill:#466EB6;" d="M2084.868,1354.039c29.161-23.609,105.557,9.029,116.938,24.266
				c11.193,14.984,33.914,173.096,17.191,184.031c-16.723,10.935-68.477,33.08-90.001,13.543
				C2107.472,1556.343,2084.868,1354.039,2084.868,1354.039z"/>
			<path style="fill:#F7A491;" d="M2068.529,1349.624c0,0-49.559-25.327-56.265-37.901c-6.706-12.576-34.592-53.366-34.592-53.366
				s-14.474,0.264-18.26,6.683c4.651,17.449,18.923,65.797,37.365,80.048c18.444,14.251,67.014,43.628,67.014,43.628
				L2068.529,1349.624z"/>
			<path style="fill:#F7A491;" d="M1964.553,1280.822c7.02-1.942,15.869-5.713,22.374-8.692c-2.814-3.745-4.742-6.628-5.165-7.974
				c-1.978-6.285,10.505-30.879,8.458-32.894c-3.766-1.283-10.456,11.418-11.715,10.178c-1.26-1.239-2.264-29.979-6.431-29.896
				c-4.167,0.082-0.986,21.422-3.599,21.67c-2.912,0.277-5.518,1.012-8.273,2.173c-2.757,1.161-6.193,2.634-7.673,5.038
				c-1.305,2.119-3.316,5.75,1.109,14.142c6.236,11.822,5.038,9.244,8.729,20.408
				C1962.676,1275.909,1963.359,1277.972,1964.553,1280.822z"/>
			<g>
				<path style="fill:#F7A491;" d="M2057.549,1653.279c0,0-1.51,30.924-1.51,49.779c0,18.855,29.039,92.771,26.398,103.329
					c-2.641,10.56,27.366,9.125,27.366,9.125s2.049-57.396-5.682-84.548c-7.73-27.151,0-82.965,0-82.965L2057.549,1653.279z"/>
				<path style="fill:#F7A491;" d="M2130.391,1638.373c0,0,9.744,51.109,17.664,62.799c7.92,11.691,50.534,91.264,50.534,101.445
					c0,10.182,26.776,1.885,26.776,1.885s-22.627-87.113-31.679-113.511c-9.052-26.398-12.444-48.271-12.444-48.271
					L2130.391,1638.373z"/>
			</g>
			<path style="fill:#B75742;" d="M2048.461,1570.913c-3.08,18.694-30.234,115.37-30.234,115.37
				c41.822,11.418,161.84,18.733,206.716-10.193c0,0-35.43-133.316-56.023-158.049l-38.528-6.356l-68.326-7.36
				C2062.064,1504.325,2050.642,1557.686,2048.461,1570.913z"/>
			<path style="fill:#50BFA5;" d="M2036.807,1838.82h82.398c0,0,1.699-29.792-3.957-35.448c-5.659-5.657-4.15,0.716-13.577,4.316
				c-9.429,3.601-15.563-5.085-19.871-9.392c-4.31-4.31-1.248,13.748-19.35,13.748S2032.658,1830.524,2036.807,1838.82z"/>
			<path style="fill:#50BFA5;" d="M2197.725,1799.336c-4.26,0.978-17.674,11.92-22.123,23.755
				c-4.448,11.835-3.18,16.061-3.18,16.061s13.633,6.063,39.805,4.151c26.172-1.913,22.178-4.784,22.178-4.784
				s-1.868-26.924-6.313-35.109C2223.645,1795.225,2205.189,1797.619,2197.725,1799.336z"/>
			<path style="fill:#F7A491;" d="M2190.149,1462.369c0,0,15.597,37.008,10.909,49.912c-4.689,12.905-16.958,60.267-16.958,60.267
				s10.521,9.093,17.559,7.669c9.505-14.572,34.948-55.941,33.278-78.334c-1.672-22.395-11.688-58.881-11.688-58.881
				L2190.149,1462.369z"/>
			<path style="fill:#F7A491;" d="M2209.656,1566.368c-5.914-3.778-14.316-7.689-20.641-10.43c-0.871,4.429-1.694,7.667-2.386,8.837
				c-3.229,5.465-28.89,12.365-29.015,15.13c-0.125,2.765,13.953-0.021,13.877,1.681c-0.077,1.701-19.06,21.09-16.316,24.022
				c2.744,2.933,17.098-15.386,18.825-13.539c1.728,1.847-15.648,23.398-10.903,24.458c4.745,1.059,14.116-20.133,16.724-18.906
				c2.607,1.227-7.169,20.295-5.238,22.359c1.931,2.063,3.809-2.488,6.38-7.541c2.571-5.054,5.674-12.438,6.792-11.242
				c1.117,1.194-2.94,15.582-0.343,17.021c2.598,1.439,14.787-39.7,19.462-46.518
				C2207.41,1570.918,2208.383,1569.06,2209.656,1566.368z"/>
			<path style="fill:#50BFA5;" d="M2235.016,1458.679c0,0-13.761,20.241-43.34,29.397c-3.037-15.97-6.305-23.475-6.925-23.387
				c-1.644,0.234-7.965,25.633-15.055,54.516c-23.614,13.672-109.125,6.934-109.199-7.52c-0.057-11.04,14.457-97.168-0.966-109.219
				c-5.606-4.381-47.647-36.047-47.647-36.047s12.289-30.914,24.526-43.041c0,0,25.854,10.389,48.672,19.567
				c29.938,12.042,54.288,17.74,71.006,25.339C2213.039,1394.172,2223.25,1411.662,2235.016,1458.679z"/>
			<path style="fill:#3C5F9E;" d="M2157.993,1369.139c-15.568,46.496-7.247,129.32,14.761,153.99
				c6.349-15.357-6.067-61.947,11.989-140.952C2185.266,1378.169,2159.566,1364.847,2157.993,1369.139z"/>
			<path style="fill:#3C5F9E;" d="M2116.042,1353.404c-22.495,24.443-51.738,123.75-52.449,128.266
				c0.989-79.367,26.78-125.444,31.817-134.665C2098.732,1344.771,2116.437,1351.008,2116.042,1353.404z"/>
			<path style="fill:#F7A491;" d="M2116.049,1334.791c0.959,14.34-3.094,26.166-5.429,30.829c0,0,14.653,14.368,39.11,6.026
				c-1.246-12.768,0.059-27.184,3.739-43.136L2116.049,1334.791z"/>
			<path style="fill:#F47458;" d="M2115.001,1351.734c0.931-4.913,1.466-10.689,1.048-16.943l37.421-6.28
				c-0.924,4.003-1.697,7.91-2.319,11.718C2139.391,1348.844,2126.231,1353.383,2115.001,1351.734z"/>
			<path style="fill:#F7A491;" d="M2114.011,1260.469c-13.502,12.455-32.603,54.34-16.617,73.751
				c20.267,24.61,56.321,8.75,78.206-23.127C2197.485,1279.215,2134.839,1241.256,2114.011,1260.469z"/>
			<path style="fill:#F7CC7F;" d="M2155.143,1276.838c0,0,15.701,0.476,9.514,15.224c-6.185,14.749-17.365,19.745-11.417,25.692
				c4.09,4.088,0.626,12.844-1.232,17.67c-0.961,2.496,3.343-2.787,9.262-3.299c14.405-1.242,24.97-5.573,29.358-22.484
				c0,0,12.861-17.701,9.611-38.33c-2.388-15.164-14.673-17.438-14.673-17.438s-3.416-6.913-19.488-14.637
				c-22.711-10.914-56.732-18.37-56.732,2.601C2109.345,1254.894,2103.745,1274.047,2155.143,1276.838z"/>
			<path style="fill:#F7CC7F;" d="M2173.262,1263.511c22.259-33.848,66.297-18.166,70.746,6.053
				c3.788,20.626,20.817,30.034,49.143,31.198c38.367,1.575,25.748,56.24,3.389,59.386c24.823,41.939-59.892,67.843-57.376,26.582
				c-31.036-5.612-45.738-22.694-39.436-45.083c6.302-22.39,9.503-79.883-11.848-69.524
				C2165.709,1279.064,2173.262,1263.511,2173.262,1263.511z"/>
			<path style="fill:#F7A491;" d="M2150.724,1306.256c1.11-0.569,16.235-7.216,20.883,0.815c3.798,6.56-3.487,20.553-14.844,20.553
				C2145.409,1327.623,2136.451,1313.57,2150.724,1306.256z"/>
			<path style="fill:#C9F2EA;" d="M2119.205,1838.82c0,0,0.354-6.188,0.201-13.457c-9.662,4.178-62.679,3.506-81.944,3.115
				c-1.678,3.866-2.005,7.642-0.655,10.342H2119.205z"/>
			<path style="fill:#C9F2EA;" d="M2212.227,1843.303c26.172-1.913,22.178-4.784,22.178-4.784s-0.431-6.202-1.368-13.557
				l-0.005,0.002c-18.221,16.262-46.67,7.959-59.119,3.117c-2.395,8.059-1.49,11.072-1.49,11.072
				S2186.055,1845.215,2212.227,1843.303z"/>
		</g>
	</g>
	<g>
		<g>
			<g>
				<path style="fill:#F48C7F;" d="M777.211,1309.444c0,0,23.177-2.146,37.479,22.91c14.302,25.058,34.888,87.199,42.763,92.132
					c7.875,4.934,55.185,36.045,62.066,32.926c6.881-3.12,19.367-35.324,24.374-36.673c5.009-1.349,5.699,3.711,3.922,7.083
					c-1.777,3.374-3.989,7.315-2.07,8.518c1.918,1.201,1.918,1.201,1.918,1.201s15.708-9.685,20.101-8.335
					c4.392,1.35-7.155,18.852-6.404,23.431c0.75,4.578-7.417,13.601-8.806,16.236c-1.388,2.635-2.223,6.93-27.277,9.879
					c-25.054,2.948-65.459-7.678-87.403-24.755c-29.633-23.062-62.284-109.772-64.238-118.997
					C768.687,1311.643,777.211,1309.444,777.211,1309.444z"/>
				<path style="fill:#F47458;" d="M818.167,1327.35c-14.848-24.91-41.623-16.561-41.623-16.561s-10.343,1.523-5.493,24.906
					c1.115,5.375,13.491,39.644,29.301,69.529c9.295-11.853,27.686-24.729,41.481-31.193
					C834.916,1357.626,824.336,1337.699,818.167,1327.35z"/>
				<path style="fill:#F7A491;" d="M870.886,1735.733c0,0,14.982,61.101,26.149,70.697c11.167,9.593,47.581,27.943,38.053,29.918
					c-9.528,1.975-80.046,3.615-78.114-8.147c1.934-11.763,3.963-19.261,3.963-19.261l-18.653-43.644L870.886,1735.733z"/>
				<path style="fill:#466EB6;" d="M939.829,1838.854c-17.198,1.711-67.413,3.517-82.044,1.648c0,0-2.743-0.539-0.81-12.302
					c0.473-2.876,0.951-5.497,1.404-7.814c13.268,3.485,42.167-3.934,53.615-5.454c12.436,5.953,26.454,14.846,30.975,15.588
					C949.518,1831.597,949.511,1837.891,939.829,1838.854z"/>
				<path style="fill:#F7A491;" d="M708.764,1778.724c0,0,2.78,24.745,2.78,31.557s-6.346,26.023-3.406,28.964
					c2.939,2.939,86.934,2.576,86.934-0.19c0-2.765-14.843-11.15-35.015-16.914c-20.172-5.763-15.18-29.946-17.735-43.416H708.764z"
					/>
				<path style="fill:#466EB6;" d="M796.425,1841.293c0-6.475-13.773-12.543-31.612-17.992c-19.01,6.422-45.409,1.122-55.307-0.77
					c-3.027,7.922-4.279,18.686-2.146,19.236C709.881,1842.419,796.425,1842.475,796.425,1841.293z"/>
				<polygon style="fill:#466EB6;" points="822.495,1480.336 893.999,1775.484 848.747,1785.621 740.821,1497.252 				"/>
				<path style="fill:#86B1F2;" d="M805.807,1494.28l-23.318,68.582l-29.49,227.007l-44.992-2.926c0,0-15.195-226.209-9.955-287.862
					L805.807,1494.28z"/>
				<path style="fill:#B75742;" d="M839.917,1495.385c-9.58-36.24-22.114-85.319-25.546-106.534
					c-5.764-35.63-25.15-79.118-25.15-79.118s-21.328-3.371-37.198-2.488c-30.655,1.701-74.991,11.6-74.991,11.6l15.597,197.919
					C741.004,1515.695,794.057,1511.48,839.917,1495.385z"/>
				<path style="fill:#F7CC7F;" d="M682.893,1211.494c-0.33,18.524,5.749,26.584,17.3,41.118
					c11.567,14.556,31.925,31.685,31.925,31.685l57.291-36.52c0,0-0.395-7.839-2.458-31.053
					C778.517,1121.877,683.148,1197.149,682.893,1211.494z"/>
				<path style="fill:#F7A491;" d="M697.375,1250.41c2.314,7.246,8.163,11.854,13.062,10.291c4.898-1.566,6.993-8.71,4.679-15.959
					c-2.315-7.246-8.163-11.854-13.063-10.288C697.155,1236.018,695.06,1243.162,697.375,1250.41z"/>
				<path style="fill:#F7A491;" d="M776.057,1237.141c-2.162,7.295,0.083,14.392,5.014,15.853
					c4.931,1.462,10.68-3.268,12.842-10.563c2.161-7.295-0.083-14.393-5.014-15.853
					C783.967,1225.117,778.218,1229.846,776.057,1237.141z"/>
				<path style="fill:#F7A491;" d="M723.965,1272.875l-2.136,38.738c0,0,4.695,13.107,25.936,13.15
					c15.676,0.031,13.868-34.926,13.868-34.926l-1.248-16.963H723.965z"/>
				<path style="fill:#F27A6A;" d="M760.951,1302.062c0.108,0,0.215-0.001,0.323-0.003c0.645-6.672,0.358-12.221,0.358-12.221
					l-1.248-16.963h-36.42l-0.286,5.182C728.249,1285.834,741.659,1302.062,760.951,1302.062z"/>
				<path style="fill:#F7A491;" d="M739.494,1184.27c-12.271,1.813-21.246,10.501-27.765,21.111
					c-12.923,21.029-2.415,51.99,1.132,59.086c3.547,7.094,17.736,25.336,38.766,25.336c21.03,0,33.548-24.496,35.323-43.246
					c2.375-25.103-2.169-51.146-26.06-59.875C754.377,1184.303,746.665,1183.211,739.494,1184.27z"/>
				<path style="fill:#F7CC7F;" d="M705.583,1234.326c0,0,5.971-33.502,24.974-41.018c19.003-7.519,47.141-5.558,55.775,27.113
					c0,0-5.345-39.328-15.682-49.666c-10.336-10.336-31.301-11.484-31.301-11.484l6.918,6.89c0,0-7.566-2.506-18.842-2.506
					c-11.276,0-13.365,2.716-13.365,2.716s7.727,1.252,7.727,3.759c0,2.506-20.464,3.341-20.464,3.341s-1.641,16.686-8.284,23.328
					C686.397,1203.441,705.583,1234.326,705.583,1234.326z"/>
				<path style="fill:#96D9C9;" d="M1002.457,1394.824c-7.428-4.498-22.842-11.496-32.188-10.861
					c-1.904,0.131-3.731-0.865-4.705-2.567l-17.855-31.198c-0.974-1.703-0.93-3.82,0.113-5.457
					c5.114-8.031,6.688-25.214,6.488-34.045l-38.841-22.883c-7.433,4.334-20.896,14.514-24.952,23.168
					c-0.826,1.764-2.563,2.886-4.473,2.887l-35.026,0.047c-1.909,0.002-3.67-1.114-4.535-2.877
					c-4.245-8.642-17.932-18.788-25.461-23.102l-38.336,22.982c-0.006,8.83,1.945,26.01,7.235,34.027
					c1.078,1.633,1.169,3.752,0.232,5.456l-17.169,31.244c-0.937,1.704-2.743,2.704-4.649,2.58
					c-9.358-0.613-24.619,6.427-31.949,10.942l0.504,45.865c7.428,4.498,22.843,11.496,32.188,10.86
					c1.905-0.13,3.732,0.866,4.706,2.568l17.855,31.199c0.974,1.702,0.929,3.82-0.113,5.457c-5.114,8.03-6.688,25.213-6.488,34.045
					l38.84,22.883c7.434-4.334,20.898-14.514,24.953-23.169c0.826-1.763,2.563-2.884,4.472-2.886l35.026-0.047
					c1.91-0.004,3.671,1.114,4.536,2.877c4.245,8.642,17.932,18.788,25.461,23.101l38.337-22.981
					c0.006-8.831-1.945-26.013-7.235-34.028c-1.078-1.634-1.169-3.752-0.232-5.456l17.17-31.245c0.936-1.703,2.741-2.704,4.648-2.58
					c9.359,0.613,24.619-6.427,31.949-10.942L1002.457,1394.824z M869.674,1481.547c-35.079,0-63.617-28.539-63.617-63.617
					c0-35.08,28.538-63.617,63.617-63.617s63.617,28.537,63.617,63.617C933.291,1453.008,904.753,1481.547,869.674,1481.547z"/>
			</g>
		</g>
		<path style="fill:#F7A491;" d="M762.993,1440.908c8.983,9.24,47.339,29.742,58.183,36.56c1.125-0.072,7.666-0.22,16.943,5.183
			c6.555,3.816,20.283,5.436,17.093,9.024c-3.191,3.586-14.921-2.469-14.391,1.002c0.531,3.474,24.146,17.676,21.255,20.927
			c-2.892,3.249-24.262-11.55-23.787-8.443c0.475,3.108,21.511,14.587,17.423,19.183c-4.088,4.596-23.426-15.646-25.619-13.18
			c-2.193,2.465,10.346,14.928,7.055,18.625c-3.291,3.698-16.27-17.781-15.99-15.953c0.279,1.826,2.935,14.921,0.249,15.409
			c-3.038,0.554-13.576-32.134-19.575-35.456l0,0c-16.344-6.574-54.757-25.863-63.769-35.404
			c-14.16-14.991-37.776-43.351-45.939-58.568c-14.962-27.893-5.024-36.11-5.024-36.11s11.522-20.495,26.452,0.86
			C726.713,1383.39,752.342,1429.949,762.993,1440.908z"/>
		<path style="fill:#F47458;" d="M671.172,1320.475c-5.325,2.009-11.6,12.743-9.794,27.34c2.492,20.141,17.727,53.604,29.588,69.27
			c0,0,32.966-11.133,45.42-27.12c-1.354-3.692-21.099-42.101-36.594-58.477C686.035,1316.944,678.336,1317.772,671.172,1320.475z"
			/>
	</g>
</g>
</svg>
